<?xml version="1.0" encoding="UTF-8"?>
<svg version="1.1" xmlns="http://www.w3.org/2000/svg" width="1000" height="1000">
<path d="M0,0 L84,0 L93,1 L113,2 L124,4 L137,5 L139,6 L151,7 L167,10 L180,13 L192,16 L201,18 L217,22 L227,26 L237,29 L257,37 L273,45 L284,51 L294,58 L296,59 L296,61 L301,63 L313,74 L313,76 L315,76 L323,87 L328,96 L330,101 L333,113 L333,326 L302,326 L301,325 L301,181 L298,181 L298,183 L293,186 L291,186 L291,188 L278,196 L262,204 L254,208 L237,214 L227,218 L213,222 L195,227 L183,230 L173,232 L158,235 L145,237 L124,240 L90,243 L66,244 L17,244 L-21,242 L-42,240 L-58,238 L-66,236 L-87,233 L-93,231 L-110,228 L-134,221 L-159,213 L-167,209 L-177,205 L-193,197 L-212,185 L-216,182 L-218,182 L-218,334 L-211,345 L-200,357 L-194,362 L-194,364 L-190,366 L-185,369 L-185,371 L-181,373 L-165,383 L-162,384 L-162,386 L-157,387 L-146,393 L-136,397 L-114,405 L-96,410 L-86,412 L-81,414 L-83,424 L-86,444 L-91,445 L-97,443 L-112,440 L-124,436 L-137,432 L-155,425 L-171,417 L-181,412 L-190,406 L-196,403 L-196,401 L-201,399 L-214,389 L-218,387 L-218,545 L-211,555 L-204,563 L-202,564 L-202,566 L-200,566 L-197,569 L-197,571 L-192,573 L-180,582 L-167,590 L-148,599 L-137,604 L-116,612 L-102,616 L-88,620 L-82,622 L-62,626 L-46,629 L-25,632 L-6,634 L83,634 L106,632 L119,630 L131,629 L133,628 L148,626 L160,624 L173,621 L190,617 L207,612 L216,608 L221,607 L224,610 L232,628 L234,632 L234,637 L215,644 L201,648 L186,652 L169,656 L154,659 L124,663 L119,664 L103,665 L97,666 L62,668 L11,668 L-18,666 L-42,663 L-67,659 L-83,655 L-97,652 L-118,646 L-139,639 L-152,633 L-163,629 L-182,619 L-191,614 L-202,607 L-217,596 L-218,596 L-218,738 L-214,749 L-208,758 L-199,767 L-189,775 L-174,784 L-157,792 L-141,798 L-131,802 L-117,806 L-108,809 L-99,811 L-86,814 L-62,818 L-60,819 L-23,823 L-17,824 L15,826 L67,826 L100,824 L127,821 L142,819 L161,815 L177,812 L191,809 L200,806 L216,801 L230,796 L247,789 L262,781 L273,774 L286,763 L292,756 L294,756 L296,751 L298,748 L300,741 L301,606 L302,605 L332,605 L333,606 L333,744 L330,756 L325,766 L318,777 L316,777 L314,781 L303,792 L301,792 L301,794 L284,806 L274,812 L271,812 L271,814 L261,819 L251,823 L239,828 L232,831 L219,835 L207,839 L191,843 L163,849 L153,851 L138,853 L114,856 L95,857 L91,858 L-8,858 L-12,857 L-32,856 L-69,851 L-88,847 L-104,844 L-110,842 L-117,841 L-126,838 L-142,833 L-155,829 L-163,825 L-173,821 L-189,813 L-201,806 L-208,802 L-208,800 L-212,798 L-221,791 L-226,787 L-226,785 L-228,785 L-237,774 L-243,765 L-248,754 L-250,747 L-250,112 L-245,96 L-236,81 L-224,68 L-210,57 L-198,49 L-186,43 L-179,39 L-169,35 L-157,30 L-144,26 L-134,22 L-118,18 L-107,15 L-84,10 L-68,7 L-41,4 L-29,2 Z M16,31 L-16,33 L-30,35 L-44,36 L-64,39 L-79,42 L-90,44 L-115,50 L-135,56 L-149,61 L-161,66 L-176,74 L-187,80 L-192,83 L-192,85 L-197,87 L-209,98 L-214,105 L-218,115 L-219,118 L-219,126 L-216,135 L-207,147 L-199,155 L-197,155 L-197,157 L-186,164 L-176,170 L-166,175 L-157,179 L-137,187 L-123,191 L-114,194 L-83,201 L-68,204 L-54,206 L-35,208 L-33,209 L-7,211 L6,212 L77,212 L97,210 L116,209 L141,205 L162,202 L179,198 L197,194 L206,191 L222,186 L240,179 L256,171 L264,167 L275,160 L285,152 L292,145 L299,135 L301,129 L301,115 L297,106 L291,98 L286,93 L281,88 L265,77 L248,68 L237,63 L225,59 L217,56 L209,53 L197,50 L183,46 L170,43 L146,39 L130,37 L127,36 L107,34 L99,33 L71,32 L67,31 Z " fill="#F59021" transform="translate(304,79)"/>
<path d="M0,0 L172,0 L181,7 L191,16 L199,27 L200,32 L200,82 L217,82 L217,22 L220,12 L225,4 L234,0 L425,0 L434,7 L436,11 L438,11 L443,19 L445,25 L445,35 L444,38 L444,82 L460,82 L460,29 L461,21 L467,11 L474,4 L482,1 L486,0 L661,0 L670,3 L677,7 L677,9 L679,9 L682,13 L682,16 L684,16 L687,24 L687,204 L683,213 L679,219 L672,225 L663,228 L659,229 L493,229 L480,227 L472,223 L466,218 L461,210 L460,202 L460,165 L459,164 L443,164 L443,211 L437,221 L430,227 L422,229 L235,229 L226,225 L221,220 L217,211 L216,164 L201,164 L200,167 L200,202 L198,210 L192,219 L185,225 L177,228 L172,229 L2,229 L-8,227 L-17,221 L-24,212 L-27,202 L-27,27 L-24,17 L-19,9 L-17,9 L-17,7 L-9,2 Z M8,32 L5,33 L5,196 L168,196 L169,132 L173,131 L247,131 L248,195 L249,196 L411,196 L412,195 L413,131 L491,131 L492,196 L655,196 L655,33 L652,32 L494,32 L492,33 L492,114 L412,114 L412,33 L410,32 L250,32 L248,34 L248,114 L168,114 L168,38 L163,33 L159,32 Z " fill="#F59022" transform="translate(275,422)"/>
<path d="M0,0 L75,0 L86,4 L94,10 L99,17 L101,22 L102,29 L102,102 L99,114 L97,114 L95,119 L87,126 L82,129 L72,131 L2,131 L-7,129 L-17,122 L-23,115 L-26,108 L-27,102 L-27,29 L-25,20 L-18,9 L-9,3 Z M6,33 L5,34 L5,97 L6,98 L70,98 L70,33 Z " fill="#F59123" transform="translate(811,471)"/>
<path d="M0,0 L75,0 L86,4 L91,7 L91,9 L94,10 L94,12 L96,12 L101,22 L102,28 L102,103 L100,111 L93,122 L86,127 L82,129 L73,131 L3,131 L-8,128 L-17,122 L-24,113 L-26,108 L-27,100 L-27,31 L-25,21 L-23,16 L-19,10 L-9,3 Z M5,33 L5,98 L70,98 L71,94 L71,35 L70,33 Z " fill="#F59124" transform="translate(324,471)"/>
<path d="M0,0 L74,0 L83,3 L92,9 L98,17 L101,24 L102,33 L102,98 L100,110 L93,121 L83,128 L72,131 L2,131 L-9,128 L-19,121 L-24,114 L-27,106 L-27,25 L-24,17 L-18,9 L-16,9 L-16,7 L-8,2 Z M5,33 L4,97 L5,98 L69,98 L70,97 L70,34 L69,33 Z " fill="#F59123" transform="translate(568,471)"/>
</svg>
